<svg width="33" height="32" viewBox="0 0 33 32" fill="none" xmlns="http://www.w3.org/2000/svg">
<g clip-path="url(#clip0_2942_532)">
<path d="M29.6614 11.8533L28.2614 6.02667C27.9681 4.82667 26.9281 4 25.7148 4H7.19476C5.99476 4 4.94143 4.84 4.66143 6.02667L3.26143 11.8533C2.94143 13.2133 3.23476 14.6 4.08809 15.6933C4.19476 15.84 4.34143 15.9467 4.46143 16.08V25.3333C4.46143 26.8 5.66143 28 7.12809 28H25.7948C27.2614 28 28.4614 26.8 28.4614 25.3333V16.08C28.5814 15.96 28.7281 15.84 28.8348 15.7067C29.6881 14.6133 29.9948 13.2133 29.6614 11.8533ZM25.6748 6.65333L27.0748 12.48C27.2081 13.04 27.0881 13.6 26.7414 14.04C26.5548 14.28 26.1548 14.6667 25.4881 14.6667C24.6748 14.6667 23.9681 14.0133 23.8748 13.1467L23.1014 6.66667L25.6748 6.65333ZM17.7948 6.66667H20.4081L21.1281 12.6933C21.1948 13.2133 21.0348 13.7333 20.6881 14.12C20.3948 14.4667 19.9681 14.6667 19.4214 14.6667C18.5281 14.6667 17.7948 13.88 17.7948 12.92V6.66667ZM11.7814 12.6933L12.5148 6.66667H15.1281V12.92C15.1281 13.88 14.3948 14.6667 13.4081 14.6667C12.9548 14.6667 12.5414 14.4667 12.2214 14.12C11.8881 13.7333 11.7281 13.2133 11.7814 12.6933ZM5.84809 12.48L7.19476 6.66667H9.82143L9.04809 13.1467C8.94143 14.0133 8.24809 14.6667 7.43476 14.6667C6.78143 14.6667 6.36809 14.28 6.19476 14.04C5.83476 13.6133 5.71476 13.04 5.84809 12.48ZM7.12809 25.3333V17.2933C7.23476 17.3067 7.32809 17.3333 7.43476 17.3333C8.59476 17.3333 9.64809 16.8533 10.4214 16.0667C11.2214 16.8667 12.2881 17.3333 13.5014 17.3333C14.6614 17.3333 15.7014 16.8533 16.4748 16.0933C17.2614 16.8533 18.3281 17.3333 19.5281 17.3333C20.6481 17.3333 21.7148 16.8667 22.5148 16.0667C23.2881 16.8533 24.3414 17.3333 25.5014 17.3333C25.6081 17.3333 25.7014 17.3067 25.8081 17.2933V25.3333H7.12809Z" fill="#32323B"/>
</g>
<defs>
<clipPath id="clip0_2942_532">
<rect width="32" height="32" fill="white" transform="translate(0.461426)"/>
</clipPath>
</defs>
</svg>
