<svg width="25" height="24" viewBox="0 0 25 24" fill="none" xmlns="http://www.w3.org/2000/svg">
<path d="M8.25208 16.9084V17.9598V16.9084ZM8.94273 16.6497L9.63337 17.4425L8.94273 16.6497ZM16.5481 7.98238L17.2947 8.72267L16.5481 7.98238ZM12.0046 11.0588L11.258 11.7991L12.0046 11.0588ZM16.5597 16.6497L15.8691 17.4425L16.5597 16.6497ZM17.2504 16.9084V17.9598V16.9084ZM8.2077 7.67125L8.2077 8.72267L8.2077 7.67125ZM8.95432 7.98238L8.2077 8.72267L8.95432 7.98238ZM12.0606 13.9335L12.7512 14.7263L12.0606 13.9335ZM13.4419 13.9335L12.7512 14.7263L13.4419 13.9335ZM5.17873 10.0594L6.82343 8.41472L5.33651 6.92779L3.6918 8.57249L5.17873 10.0594ZM6.82343 8.41472L10.5208 4.71732L9.0339 3.23039L5.33651 6.92779L6.82343 8.41472ZM6.07997 8.72267L8.2077 8.72267L8.2077 6.61983L6.07997 6.61983L6.07997 8.72267ZM8.2077 8.72267L11.258 11.7991L12.7512 10.3185L9.70095 7.24209L8.2077 8.72267ZM14.2445 11.7991L17.2947 8.72267L15.8015 7.24209L12.7512 10.3185L14.2445 11.7991ZM14.9816 4.71732L18.679 8.41472L20.1659 6.92779L16.4685 3.23039L14.9816 4.71732ZM18.679 8.41472L20.3237 10.0594L21.8106 8.57249L20.1659 6.92779L18.679 8.41472ZM17.2947 8.72267L19.4225 8.72267L19.4225 6.61983L17.2947 6.61983L17.2947 8.72267ZM10.5208 19.8623L6.82343 16.1649L5.3365 17.6518L9.0339 21.3492L10.5208 19.8623ZM6.82343 16.1649L5.17873 14.5202L3.6918 16.0071L5.3365 17.6518L6.82343 16.1649ZM6.07997 17.9598L8.25208 17.9598L8.25208 15.857H6.07997V17.9598ZM9.63337 17.4425L12.7512 14.7263L11.3699 13.1408L8.25208 15.857L9.63337 17.4425ZM12.7512 14.7263L15.8691 17.4425L17.2504 15.8569L14.1325 13.1408L12.7512 14.7263ZM20.3237 14.5202L18.679 16.1649L20.1659 17.6518L21.8106 16.0071L20.3237 14.5202ZM18.679 16.1649L14.9816 19.8623L16.4685 21.3492L20.1659 17.6518L18.679 16.1649ZM17.2504 17.9598L19.4225 17.9598V15.857H17.2504L17.2504 17.9598ZM8.25208 17.9598C8.75987 17.9598 9.2505 17.776 9.63337 17.4425L8.25208 15.857L8.25208 17.9598ZM17.2947 8.72267L17.2947 8.72267L17.2947 6.61983C16.7339 6.61983 16.1964 6.84385 15.8015 7.24209L17.2947 8.72267ZM11.258 11.7991C12.0806 12.6287 13.4218 12.6287 14.2445 11.7991L12.7512 10.3185L12.7512 10.3185L11.258 11.7991ZM3.6918 8.57249C1.63878 10.6255 1.63878 13.9541 3.6918 16.0071L5.17873 14.5202C3.94692 13.2884 3.94692 11.2912 5.17873 10.0594L3.6918 8.57249ZM9.0339 21.3492C11.0869 23.4022 14.4155 23.4022 16.4685 21.3492L14.9816 19.8623C13.7498 21.0941 11.7526 21.0941 10.5208 19.8623L9.0339 21.3492ZM15.8691 17.4425C16.2519 17.776 16.7426 17.9598 17.2504 17.9598L17.2504 15.857L17.2504 15.8569L15.8691 17.4425ZM20.3237 10.0594C21.5555 11.2912 21.5555 13.2884 20.3237 14.5202L21.8106 16.0071C23.8637 13.9541 23.8637 10.6255 21.8106 8.57249L20.3237 10.0594ZM8.2077 8.72267L8.2077 8.72267L9.70095 7.24209C9.30609 6.84385 8.76851 6.61983 8.2077 6.61983L8.2077 8.72267ZM12.7512 14.7263L14.1325 13.1408C13.3408 12.451 12.1616 12.451 11.3699 13.1408L12.7512 14.7263ZM10.5208 4.71732C11.7526 3.48551 13.7498 3.48551 14.9816 4.71732L16.4685 3.23039C14.4155 1.17737 11.0869 1.17737 9.0339 3.23039L10.5208 4.71732Z" fill="#32323B"/>
</svg>
