<svg width="27" height="28" viewBox="0 0 27 28" fill="none" xmlns="http://www.w3.org/2000/svg">
<path d="M13.4614 0.666748C6.10142 0.666748 0.128082 6.64008 0.128082 14.0001C0.128082 21.3601 6.10142 27.3334 13.4614 27.3334C20.8214 27.3334 26.7948 21.3601 26.7948 14.0001C26.7948 6.64008 20.8214 0.666748 13.4614 0.666748ZM6.88808 22.3734C7.46142 21.1734 10.9547 20.0001 13.4614 20.0001C15.9681 20.0001 19.4748 21.1734 20.0347 22.3734C18.2214 23.8134 15.9414 24.6667 13.4614 24.6667C10.9814 24.6667 8.70142 23.8134 6.88808 22.3734ZM21.9414 20.4401C20.0347 18.1201 15.4081 17.3334 13.4614 17.3334C11.5147 17.3334 6.88808 18.1201 4.98142 20.4401C3.62142 18.6534 2.79475 16.4267 2.79475 14.0001C2.79475 8.12008 7.58142 3.33341 13.4614 3.33341C19.3414 3.33341 24.1281 8.12008 24.1281 14.0001C24.1281 16.4267 23.3014 18.6534 21.9414 20.4401ZM13.4614 6.00008C10.8747 6.00008 8.79475 8.08008 8.79475 10.6667C8.79475 13.2534 10.8747 15.3334 13.4614 15.3334C16.0481 15.3334 18.1281 13.2534 18.1281 10.6667C18.1281 8.08008 16.0481 6.00008 13.4614 6.00008ZM13.4614 12.6667C12.3547 12.6667 11.4614 11.7734 11.4614 10.6667C11.4614 9.56008 12.3547 8.66675 13.4614 8.66675C14.5681 8.66675 15.4614 9.56008 15.4614 10.6667C15.4614 11.7734 14.5681 12.6667 13.4614 12.6667Z" fill="#32323B"/>
</svg>
